<svg width="34" height="34" viewBox="0 0 34 34" fill="none" xmlns="http://www.w3.org/2000/svg">
<g clip-path="url(#clip0_211_2332)">
<path d="M17.0908 20.6297C18.4018 19.5268 19.342 18.0474 19.7839 16.3921C20.2257 14.7368 20.1479 12.9857 19.5609 11.3761C18.9739 9.7665 17.9062 8.37635 16.5025 7.3941C15.0987 6.41185 13.4269 5.88501 11.7136 5.88501C10.0004 5.88501 8.32852 6.41185 6.92479 7.3941C5.52105 8.37635 4.45331 9.7665 3.86632 11.3761C3.27934 12.9857 3.2015 14.7368 3.64337 16.3921C4.08524 18.0474 5.02543 19.5268 6.33649 20.6297C4.21022 21.5919 2.38053 23.1062 1.03766 25.015C0.79932 25.3544 0.70532 25.7744 0.776273 26.183C0.847227 26.5916 1.07734 26.9554 1.41614 27.1945C1.67881 27.3823 1.99383 27.4827 2.31668 27.4817C2.56781 27.4824 2.81536 27.4222 3.03812 27.3063C3.26088 27.1903 3.45221 27.0221 3.59571 26.816C4.51076 25.5128 5.72616 24.4489 7.13915 23.7145C8.55213 22.9801 10.1212 22.5967 11.7136 22.5967C13.3061 22.5967 14.8751 22.9801 16.2881 23.7145C17.7011 24.4489 18.9165 25.5128 19.8315 26.816C19.945 26.9953 20.0937 27.1497 20.2686 27.2698C20.4435 27.3899 20.641 27.4732 20.8491 27.5146C21.0572 27.5561 21.2715 27.5548 21.4791 27.5109C21.6867 27.467 21.8832 27.3814 22.0567 27.2592C22.2301 27.1371 22.377 26.981 22.4883 26.8003C22.5996 26.6197 22.6731 26.4183 22.7042 26.2085C22.7354 25.9986 22.7235 25.7846 22.6694 25.5794C22.6154 25.3743 22.5201 25.1822 22.3896 25.015C21.0467 23.1062 19.217 21.5919 17.0908 20.6297ZM6.4931 14.2476C6.4931 13.2151 6.79928 12.2058 7.37292 11.3473C7.94656 10.4888 8.76189 9.81964 9.71582 9.42451C10.6697 9.02938 11.7194 8.926 12.7321 9.12743C13.7448 9.32887 14.675 9.82608 15.4051 10.5562C16.1352 11.2863 16.6324 12.2165 16.8338 13.2292C17.0353 14.2419 16.9319 15.2915 16.5368 16.2455C16.1416 17.1994 15.4725 18.0147 14.614 18.5883C13.7555 19.162 12.7461 19.4682 11.7136 19.4682C10.3291 19.4682 9.0012 18.9181 8.02216 17.9391C7.04312 16.9601 6.4931 15.6322 6.4931 14.2476ZM32.6479 27.1945C32.3853 27.3823 32.0702 27.4827 31.7474 27.4817C31.4967 27.4802 31.2499 27.4191 31.0275 27.3033C30.8051 27.1876 30.6134 27.0206 30.4683 26.816C29.5513 25.515 28.3354 24.4531 26.9228 23.7196C25.5102 22.986 23.9422 22.6022 22.3504 22.6005C21.9351 22.6005 21.5367 22.4355 21.243 22.1418C20.9493 21.848 20.7843 21.4497 20.7843 21.0343C20.7843 20.619 20.9493 20.2206 21.243 19.9269C21.5367 19.6332 21.9351 19.4682 22.3504 19.4682C23.735 19.4682 25.0629 18.9181 26.0419 17.9391C27.0209 16.9601 27.571 15.6322 27.571 14.2476C27.571 12.8631 27.0209 11.5352 26.0419 10.5562C25.0629 9.57714 23.735 9.02712 22.3504 9.02712C21.8738 9.02623 21.3993 9.09212 20.9409 9.22289C20.7418 9.28227 20.533 9.30145 20.3264 9.27933C20.1199 9.2572 19.9198 9.19421 19.7378 9.09402C19.5559 8.99383 19.3956 8.85844 19.2665 8.69573C19.1374 8.53303 19.0419 8.34626 18.9856 8.1463C18.9294 7.94634 18.9134 7.73718 18.9388 7.53101C18.9641 7.32484 19.0302 7.12577 19.1332 6.94538C19.2362 6.765 19.3741 6.60692 19.5388 6.48033C19.7035 6.35374 19.8917 6.26118 20.0926 6.20804C20.8269 5.99897 21.5869 5.89354 22.3504 5.89481C24.0649 5.88983 25.7391 6.41334 27.1454 7.39406C28.5516 8.37478 29.6214 9.76505 30.2091 11.3756C30.7968 12.9861 30.8739 14.7386 30.4299 16.3946C29.9858 18.0505 29.0422 19.5293 27.7276 20.6297C29.8538 21.5919 31.6835 23.1062 33.0264 25.015C33.1461 25.1824 33.2313 25.372 33.2771 25.5727C33.3229 25.7734 33.3284 25.9811 33.2932 26.1839C33.258 26.3867 33.1828 26.5805 33.072 26.754C32.9612 26.9275 32.8171 27.0772 32.6479 27.1945V27.1945Z" fill="#4CAF4F" stroke="#4CAF4F" stroke-width="0.696069"/>
</g>
<defs>
<clipPath id="clip0_211_2332">
<rect width="33.4113" height="33.4113" fill="white" transform="translate(0.228516 0.152222)"/>
</clipPath>
</defs>
</svg>
