<svg width="23" height="22" viewBox="0 0 23 22" fill="none" xmlns="http://www.w3.org/2000/svg">
<mask id="path-1-inside-1_1_2" fill="white">
<path d="M14.315 10.6106C14.1474 10.6106 13.9918 10.5645 13.8536 10.4904V10.4923C13.8536 10.756 13.7511 11.0037 13.5651 11.1891C13.3791 11.3751 13.1317 11.4776 12.8683 11.4776C12.6982 11.4776 12.5406 11.4304 12.4009 11.3543C12.3868 11.5955 12.2904 11.821 12.1183 11.9932C11.9324 12.1792 11.6849 12.2817 11.4214 12.2817C10.8977 12.2817 10.4725 11.8701 10.4418 11.3541C10.2798 11.4417 10.0966 11.4876 9.90769 11.4755C9.39257 11.4417 8.98917 10.9966 8.98917 10.462V6.03036L8.48454 6.9046C8.29235 7.23897 7.93256 7.44658 7.5452 7.44658C7.35644 7.44658 7.16998 7.39706 7.00484 7.30244C6.7992 7.18321 6.6521 6.99184 6.59093 6.76288C6.52943 6.53379 6.56124 6.29419 6.68014 6.08886C6.6803 6.08886 8.33121 3.22996 8.43192 3.05435C8.4439 3.02795 8.47801 2.95137 8.50703 2.8861C8.53475 2.82378 8.55853 2.75982 8.58132 2.69554C9.07919 1.28998 10.3119 0.416873 11.7987 0.416873C13.7294 0.416873 15.3001 2.12009 15.3001 4.21365L15.3003 9.62514C15.3003 9.88851 15.1979 10.136 15.0121 10.3221C14.8262 10.5081 14.5787 10.6106 14.315 10.6106L14.315 10.6106ZM11.7987 0.940417C10.5212 0.940417 9.50297 1.66201 9.0748 2.87063C9.04741 2.94737 9.01888 3.02412 8.98558 3.0989C8.88899 3.31554 8.88899 3.31554 8.86177 3.34669L8.85816 3.34358C8.72336 3.59793 8.32289 4.29145 7.13345 6.35088C7.08458 6.43534 7.07163 6.53341 7.09656 6.62721C7.12181 6.72101 7.18233 6.80006 7.26613 6.84843C7.52622 6.99783 7.88242 6.9014 8.03066 6.64311L9.02429 4.92282C9.08366 4.82032 9.2037 4.76998 9.31882 4.80113C9.43329 4.8318 9.51283 4.93561 9.51283 5.05401V10.4621C9.51283 10.7173 9.70535 10.9375 9.94201 10.9531C10.0785 10.9603 10.2057 10.9146 10.3013 10.8191C10.3882 10.7322 10.4361 10.6164 10.4361 10.4926V6.95564C10.4361 6.811 10.5534 6.69374 10.698 6.69374C10.8427 6.69374 10.9599 6.81084 10.9599 6.95564L10.9597 11.2966C10.9597 11.5511 11.1669 11.7582 11.4214 11.7582C11.545 11.7582 11.6611 11.7103 11.7482 11.6234C11.8351 11.5363 11.883 11.4202 11.883 11.2966V6.95564C11.883 6.811 12.0001 6.69374 12.1449 6.69374C12.2896 6.69374 12.4068 6.81083 12.4068 6.95564L12.4067 10.4519V10.4926C12.4067 10.747 12.6138 10.9541 12.8685 10.9541C12.9919 10.9541 13.1077 10.906 13.1953 10.8188C13.2822 10.732 13.3301 10.6163 13.3301 10.4924V6.95546C13.3301 6.81081 13.4472 6.69356 13.592 6.69356C13.7366 6.69356 13.8539 6.81065 13.8539 6.95546L13.8536 9.62526C13.8536 9.87994 14.0607 10.0871 14.315 10.0871C14.4388 10.0871 14.5546 10.039 14.6415 9.95227C14.7288 9.86502 14.7765 9.74891 14.7765 9.62526L14.7767 4.21377C14.7767 2.40905 13.4408 0.940471 11.7987 0.940471L11.7987 0.940417Z"/>
</mask>
<path d="M14.315 10.6106C14.1474 10.6106 13.9918 10.5645 13.8536 10.4904V10.4923C13.8536 10.756 13.7511 11.0037 13.5651 11.1891C13.3791 11.3751 13.1317 11.4776 12.8683 11.4776C12.6982 11.4776 12.5406 11.4304 12.4009 11.3543C12.3868 11.5955 12.2904 11.821 12.1183 11.9932C11.9324 12.1792 11.6849 12.2817 11.4214 12.2817C10.8977 12.2817 10.4725 11.8701 10.4418 11.3541C10.2798 11.4417 10.0966 11.4876 9.90769 11.4755C9.39257 11.4417 8.98917 10.9966 8.98917 10.462V6.03036L8.48454 6.9046C8.29235 7.23897 7.93256 7.44658 7.5452 7.44658C7.35644 7.44658 7.16998 7.39706 7.00484 7.30244C6.7992 7.18321 6.6521 6.99184 6.59093 6.76288C6.52943 6.53379 6.56124 6.29419 6.68014 6.08886C6.6803 6.08886 8.33121 3.22996 8.43192 3.05435C8.4439 3.02795 8.47801 2.95137 8.50703 2.8861C8.53475 2.82378 8.55853 2.75982 8.58132 2.69554C9.07919 1.28998 10.3119 0.416873 11.7987 0.416873C13.7294 0.416873 15.3001 2.12009 15.3001 4.21365L15.3003 9.62514C15.3003 9.88851 15.1979 10.136 15.0121 10.3221C14.8262 10.5081 14.5787 10.6106 14.315 10.6106L14.315 10.6106ZM11.7987 0.940417C10.5212 0.940417 9.50297 1.66201 9.0748 2.87063C9.04741 2.94737 9.01888 3.02412 8.98558 3.0989C8.88899 3.31554 8.88899 3.31554 8.86177 3.34669L8.85816 3.34358C8.72336 3.59793 8.32289 4.29145 7.13345 6.35088C7.08458 6.43534 7.07163 6.53341 7.09656 6.62721C7.12181 6.72101 7.18233 6.80006 7.26613 6.84843C7.52622 6.99783 7.88242 6.9014 8.03066 6.64311L9.02429 4.92282C9.08366 4.82032 9.2037 4.76998 9.31882 4.80113C9.43329 4.8318 9.51283 4.93561 9.51283 5.05401V10.4621C9.51283 10.7173 9.70535 10.9375 9.94201 10.9531C10.0785 10.9603 10.2057 10.9146 10.3013 10.8191C10.3882 10.7322 10.4361 10.6164 10.4361 10.4926V6.95564C10.4361 6.811 10.5534 6.69374 10.698 6.69374C10.8427 6.69374 10.9599 6.81084 10.9599 6.95564L10.9597 11.2966C10.9597 11.5511 11.1669 11.7582 11.4214 11.7582C11.545 11.7582 11.6611 11.7103 11.7482 11.6234C11.8351 11.5363 11.883 11.4202 11.883 11.2966V6.95564C11.883 6.811 12.0001 6.69374 12.1449 6.69374C12.2896 6.69374 12.4068 6.81083 12.4068 6.95564L12.4067 10.4519V10.4926C12.4067 10.747 12.6138 10.9541 12.8685 10.9541C12.9919 10.9541 13.1077 10.906 13.1953 10.8188C13.2822 10.732 13.3301 10.6163 13.3301 10.4924V6.95546C13.3301 6.81081 13.4472 6.69356 13.592 6.69356C13.7366 6.69356 13.8539 6.81065 13.8539 6.95546L13.8536 9.62526C13.8536 9.87994 14.0607 10.0871 14.315 10.0871C14.4388 10.0871 14.5546 10.039 14.6415 9.95227C14.7288 9.86502 14.7765 9.74891 14.7765 9.62526L14.7767 4.21377C14.7767 2.40905 13.4408 0.940471 11.7987 0.940471L11.7987 0.940417Z" fill="#4CAF4F"/>
<path d="M14.315 10.6106V9.68248H17.594L14.8015 11.401L14.315 10.6106ZM13.8536 10.4904H12.9255V8.93963L14.2921 9.67243L13.8536 10.4904ZM13.5651 11.1891L12.9088 10.5329L12.9097 10.532L13.5651 11.1891ZM12.4009 11.3543L11.4744 11.3001L11.5598 9.83945L12.8448 10.5392L12.4009 11.3543ZM12.1183 11.9932L12.775 12.6491L12.7746 12.6495L12.1183 11.9932ZM10.4418 11.3541L10.0006 10.5377L11.2819 9.84511L11.3683 11.2991L10.4418 11.3541ZM9.90769 11.4755L9.8482 12.4017L9.84696 12.4016L9.90769 11.4755ZM8.98917 6.03036L8.18537 5.56639L9.91726 2.56598V6.03036H8.98917ZM8.48454 6.9046L7.6799 6.44209L7.68075 6.44063L8.48454 6.9046ZM7.00484 7.30244L6.54342 8.10771L6.53936 8.10535L7.00484 7.30244ZM6.59093 6.76288L7.48729 6.52227L7.48757 6.52332L6.59093 6.76288ZM6.68014 6.08886L5.87697 5.6238L6.14508 5.16077H6.68014V6.08886ZM8.43192 3.05435L9.27719 3.43761L9.25896 3.4778L9.23701 3.51608L8.43192 3.05435ZM8.50703 2.8861L7.65902 2.50897L7.65902 2.50896L8.50703 2.8861ZM8.58132 2.69554L9.45616 3.00541L9.45607 3.00566L8.58132 2.69554ZM15.3001 4.21365L14.372 4.21368V4.21365H15.3001ZM15.3003 9.62514L16.2283 9.62511V9.62514H15.3003ZM15.0121 10.3221L15.669 10.9778L15.6684 10.9784L15.0121 10.3221ZM14.315 10.6106V11.5387H11.036L13.8286 9.82017L14.315 10.6106ZM11.7987 0.940417V0.0123243H13.0291L12.6911 1.19538L11.7987 0.940417ZM9.0748 2.87063L9.94962 3.18055L9.9489 3.18254L9.0748 2.87063ZM8.98558 3.0989L9.83345 3.47636L9.83324 3.47685L8.98558 3.0989ZM8.86177 3.34669L9.56067 3.95735L8.95352 4.65223L8.25515 4.0491L8.86177 3.34669ZM8.85816 3.34358L8.03812 2.90898L8.58344 1.88002L9.46478 2.64118L8.85816 3.34358ZM7.13345 6.35088L7.93714 6.81505L7.93675 6.81572L7.13345 6.35088ZM7.09656 6.62721L6.20037 6.86848L6.1996 6.86558L7.09656 6.62721ZM7.26613 6.84843L6.80386 7.65321L6.80212 7.65221L7.26613 6.84843ZM8.03066 6.64311L7.22572 6.18113L7.22699 6.17892L8.03066 6.64311ZM9.02429 4.92282L8.22063 4.45862L8.22119 4.45765L9.02429 4.92282ZM9.31882 4.80113L9.07865 5.69762L9.07635 5.69699L9.31882 4.80113ZM9.94201 10.9531L9.89299 11.88L9.88106 11.8792L9.94201 10.9531ZM10.3013 10.8191L10.9576 11.4754L10.957 11.476L10.3013 10.8191ZM10.9599 6.95564L11.888 6.95564L11.888 6.95568L10.9599 6.95564ZM10.9597 11.2966L10.0317 11.2966L10.0317 11.2966L10.9597 11.2966ZM11.7482 11.6234L12.4051 12.2791L12.4038 12.2803L11.7482 11.6234ZM12.4068 6.95564L13.3349 6.95564L13.3349 6.95568L12.4068 6.95564ZM12.4067 10.4519L11.4786 10.4519L11.4786 10.4519L12.4067 10.4519ZM13.1953 10.8188L13.8509 11.4757L13.8503 11.4763L13.1953 10.8188ZM13.8539 6.95546L14.782 6.95546L14.782 6.95557L13.8539 6.95546ZM13.8536 9.62526L12.9255 9.62526L12.9255 9.62515L13.8536 9.62526ZM14.6415 9.95227L15.2978 10.6085L15.2972 10.6091L14.6415 9.95227ZM14.7765 9.62526L13.8484 9.62526L13.8484 9.62524L14.7765 9.62526ZM14.7767 4.21377L15.7048 4.21377L15.7048 4.2138L14.7767 4.21377ZM11.7987 0.940471V1.86856H10.5683L10.9063 0.685504L11.7987 0.940471ZM14.315 11.5387C13.9733 11.5387 13.6682 11.4441 13.415 11.3083L14.2921 9.67243C14.3041 9.67886 14.3117 9.68132 14.3148 9.68213C14.3174 9.68284 14.317 9.68248 14.315 9.68248V11.5387ZM14.7817 10.4904V10.4923H12.9255V10.4904H14.7817ZM14.7817 10.4923C14.7817 11.0014 14.5819 11.4858 14.2205 11.8463L12.9097 10.532C12.9163 10.5254 12.9196 10.5197 12.9216 10.5151C12.9235 10.5105 12.9255 10.5033 12.9255 10.4923H14.7817ZM14.2214 11.8454C13.8612 12.2056 13.3776 12.4057 12.8683 12.4057V10.5495C12.8789 10.5495 12.886 10.5476 12.8907 10.5456C12.8955 10.5436 12.9016 10.5401 12.9088 10.5329L14.2214 11.8454ZM12.8683 12.4057C12.5221 12.4057 12.2132 12.3088 11.957 12.1694L12.8448 10.5392C12.8569 10.5458 12.8645 10.5483 12.8676 10.5491C12.8702 10.5498 12.8699 10.5495 12.8683 10.5495V12.4057ZM13.3274 11.4085C13.3007 11.8653 13.1154 12.3083 12.775 12.6491L11.4617 11.3373C11.4652 11.3338 11.4672 11.3308 11.4689 11.327C11.4707 11.3228 11.4736 11.3143 11.4744 11.3001L13.3274 11.4085ZM12.7746 12.6495C12.4144 13.0097 11.9308 13.2098 11.4214 13.2098V11.3536C11.4322 11.3536 11.4392 11.3516 11.444 11.3497C11.4487 11.3477 11.4548 11.3442 11.4621 11.337L12.7746 12.6495ZM11.4214 13.2098C10.3967 13.2098 9.57456 12.4056 9.51537 11.4092L11.3683 11.2991C11.3692 11.3149 11.3757 11.3287 11.3871 11.3396C11.3927 11.3449 11.3983 11.3484 11.4033 11.3504C11.4076 11.3521 11.4131 11.3536 11.4214 11.3536V13.2098ZM10.8831 12.1706C10.5833 12.3326 10.2279 12.4261 9.8482 12.4017L9.96719 10.5493C9.96721 10.5493 9.96919 10.5495 9.97408 10.5483C9.97932 10.5471 9.9884 10.5442 10.0006 10.5377L10.8831 12.1706ZM9.84696 12.4016C8.81647 12.334 8.06108 11.4577 8.06108 10.462H9.91726C9.91726 10.4934 9.92865 10.5175 9.94294 10.5333C9.95686 10.5486 9.96631 10.5492 9.96843 10.5494L9.84696 12.4016ZM8.06108 10.462V6.03036H9.91726V10.462H8.06108ZM9.79297 6.49433L9.28834 7.36856L7.68075 6.44063L8.18537 5.56639L9.79297 6.49433ZM9.28919 7.3671C8.93056 7.99101 8.26303 8.37468 7.5452 8.37468V6.51849C7.6021 6.51849 7.65413 6.48694 7.6799 6.44209L9.28919 7.3671ZM7.5452 8.37468C7.19423 8.37468 6.84874 8.28264 6.54343 8.1077L7.46626 6.49717C7.49122 6.51147 7.51865 6.51849 7.5452 6.51849V8.37468ZM6.53936 8.10535C6.12268 7.86379 5.81938 7.47066 5.69429 7.00245L7.48757 6.52332C7.48672 6.52015 7.48441 6.51454 7.47994 6.50872C7.4755 6.50294 7.4714 6.50013 7.47033 6.49952L6.53936 8.10535ZM5.69456 7.00349C5.56898 6.53562 5.63473 6.04217 5.87697 5.6238L7.48331 6.55392C7.48463 6.55163 7.48695 6.54634 7.48794 6.53884C7.48894 6.53132 7.4881 6.52531 7.48729 6.52228L5.69456 7.00349ZM6.68014 5.16077C6.22487 5.2801 5.88411 5.61169 5.88156 5.61596C5.88072 5.61739 5.87945 5.61954 5.87905 5.62023C5.87882 5.62062 5.87843 5.6213 5.87829 5.62153C5.87821 5.62167 5.87804 5.62196 5.878 5.62203C5.87787 5.62226 5.87791 5.62219 5.87826 5.62159C5.87889 5.6205 5.87995 5.61867 5.88149 5.616C5.88454 5.61073 5.88912 5.60281 5.89517 5.59234C5.90725 5.57143 5.92501 5.54069 5.94768 5.50145C5.99301 5.42297 6.05789 5.31064 6.13606 5.17527C6.29242 4.90453 6.50193 4.54171 6.71458 4.1734C7.1406 3.43554 7.57737 2.67888 7.62684 2.59262L9.23701 3.51608C9.18577 3.60543 8.74672 4.36603 8.32207 5.10152C8.10939 5.46988 7.89984 5.83276 7.74346 6.10355C7.66527 6.23895 7.60035 6.35134 7.55498 6.4299C7.53229 6.46917 7.51447 6.50002 7.5023 6.52108C7.49622 6.53159 7.49151 6.53974 7.4883 6.5453C7.48671 6.54805 7.48539 6.55032 7.48443 6.55199C7.48398 6.55276 7.48342 6.55372 7.48289 6.55464C7.48269 6.55498 7.4821 6.556 7.48138 6.55723C7.48093 6.558 7.47963 6.56021 7.47875 6.56169C7.47618 6.56601 7.1354 6.89762 6.68014 7.01695V5.16077ZM7.58666 2.67109C7.59688 2.64856 7.62925 2.57592 7.65902 2.50897L9.35505 3.26322C9.32677 3.32682 9.29091 3.40734 9.27719 3.43761L7.58666 2.67109ZM7.65902 2.50896C7.67192 2.47995 7.6862 2.44289 7.70658 2.38541L9.45607 3.00566C9.43086 3.07675 9.39758 3.1676 9.35505 3.26323L7.65902 2.50896ZM7.70649 2.38566C8.33508 0.611045 9.91725 -0.511219 11.7987 -0.511219V1.34497C10.7066 1.34497 9.8233 1.96891 9.45616 3.00541L7.70649 2.38566ZM11.7987 -0.511219C14.3113 -0.511219 16.2282 1.67972 16.2282 4.21365H14.372C14.372 2.56046 13.1475 1.34497 11.7987 1.34497V-0.511219ZM16.2282 4.21362L16.2283 9.62511L14.3722 9.62517L14.372 4.21368L16.2282 4.21362ZM16.2283 9.62514C16.2283 10.1341 16.0287 10.6174 15.669 10.9778L14.3553 9.66647C14.3626 9.65912 14.3662 9.65287 14.3682 9.648C14.3702 9.64312 14.3722 9.63596 14.3722 9.62514H16.2283ZM15.6684 10.9784C15.3081 11.3387 14.8245 11.5387 14.315 11.5387V9.6825C14.3259 9.6825 14.333 9.68052 14.3378 9.67856C14.3425 9.6766 14.3486 9.6731 14.3559 9.66587L15.6684 10.9784ZM13.8286 9.82017L13.8286 9.82015L14.8015 11.401L14.8014 11.401L13.8286 9.82017ZM11.7987 1.86851C10.9163 1.86851 10.2472 2.34055 9.94961 3.18055L8.19998 2.56071C8.75875 0.983459 10.1261 0.0123243 11.7987 0.0123243V1.86851ZM9.9489 3.18254C9.91961 3.26464 9.88155 3.36833 9.83345 3.47636L8.13771 2.72145C8.1562 2.67992 8.17521 2.63011 8.20069 2.55871L9.9489 3.18254ZM9.83324 3.47685C9.79073 3.57217 9.75513 3.65267 9.72788 3.7072C9.71097 3.74104 9.68359 3.7932 9.64389 3.85097C9.60366 3.9095 9.5639 3.95365 9.56067 3.95735L8.16287 2.73604C8.16505 2.73355 8.16434 2.73436 8.16324 2.73563C8.16182 2.73728 8.15822 2.74149 8.15348 2.74726C8.14858 2.75323 8.1424 2.76095 8.13545 2.77013C8.12843 2.77939 8.12129 2.78924 8.11414 2.79963C8.0996 2.82079 8.08841 2.83932 8.08045 2.85333C8.07302 2.86642 8.06846 2.87547 8.06744 2.87751C8.06639 2.87962 8.06705 2.87838 8.0702 2.87163C8.07326 2.86508 8.07759 2.85566 8.0838 2.84195C8.08995 2.82835 8.09732 2.81193 8.10639 2.79164C8.11545 2.77138 8.1258 2.74817 8.13793 2.72096L9.83324 3.47685ZM8.25515 4.0491L8.25154 4.04598L9.46478 2.64118L9.46839 2.64429L8.25515 4.0491ZM9.67821 3.77818C9.53295 4.05226 9.11827 4.76999 7.93714 6.81505L6.32977 5.88671C7.52751 3.81291 7.91377 3.1436 8.03812 2.90898L9.67821 3.77818ZM7.93675 6.81572C8.01101 6.68739 8.03171 6.53255 7.99351 6.38883L6.1996 6.86558C6.11155 6.53426 6.15816 6.18329 6.33016 5.88604L7.93675 6.81572ZM7.99274 6.38593C7.95455 6.24408 7.86068 6.12002 7.73013 6.04465L6.80212 7.65221C6.50397 7.48009 6.28907 7.19794 6.20037 6.86848L7.99274 6.38593ZM7.72839 6.04366C7.62275 5.98297 7.52 5.98337 7.44905 6.00248C7.37838 6.0215 7.28775 6.07305 7.22572 6.18113L8.8356 7.1051C8.43112 7.80985 7.50672 8.05694 6.80386 7.65321L7.72839 6.04366ZM7.22699 6.17892L8.22063 4.45862L9.82796 5.38701L8.83433 7.10731L7.22699 6.17892ZM8.22119 4.45765C8.48926 3.99483 9.03643 3.76321 9.5613 3.90528L9.07635 5.69699C9.37097 5.77674 9.67806 5.64581 9.8274 5.38799L8.22119 4.45765ZM9.55899 3.90466C10.0797 4.04415 10.4409 4.51599 10.4409 5.05401H8.58473C8.58473 5.35523 8.78692 5.61946 9.07865 5.69761L9.55899 3.90466ZM10.4409 5.05401V10.4621H8.58473V5.05401H10.4409ZM10.4409 10.4621C10.4409 10.3564 10.4017 10.2602 10.3374 10.1867C10.2732 10.1132 10.1599 10.0374 10.003 10.027L9.88106 11.8792C9.09978 11.8278 8.58473 11.1472 8.58473 10.4621H10.4409ZM9.99102 10.0263C9.88138 10.0205 9.74743 10.0607 9.64563 10.1623L10.957 11.476C10.664 11.7685 10.2755 11.9001 9.89299 11.8799L9.99102 10.0263ZM9.64506 10.1629C9.55698 10.251 9.50802 10.3716 9.50802 10.4926H11.3642C11.3642 10.8613 11.2195 11.2135 10.9576 11.4754L9.64506 10.1629ZM9.50802 10.4926V6.95564H11.3642V10.4926H9.50802ZM9.50802 6.95564C9.50802 6.29843 10.0408 5.76565 10.698 5.76565V7.62184C11.0659 7.62184 11.3642 7.32357 11.3642 6.95564H9.50802ZM10.698 5.76565C11.3549 5.76565 11.888 6.29789 11.888 6.95564H10.0318C10.0318 7.32378 10.3305 7.62184 10.698 7.62184V5.76565ZM11.888 6.95568L11.8878 11.2966L10.0317 11.2966L10.0318 6.95561L11.888 6.95568ZM11.8878 11.2966C11.8878 11.0385 11.6794 10.8301 11.4214 10.8301V12.6863C10.6543 12.6863 10.0317 12.0637 10.0317 11.2966H11.8878ZM11.4214 10.8301C11.3006 10.8301 11.1805 10.8788 11.0926 10.9665L12.4038 12.2803C12.1418 12.5419 11.7895 12.6863 11.4214 12.6863V10.8301ZM11.0913 10.9678C11.0036 11.0557 10.9549 11.1758 10.9549 11.2966H12.8111C12.8111 11.6647 12.6667 12.017 12.4051 12.2791L11.0913 10.9678ZM10.9549 11.2966V6.95564H12.8111V11.2966H10.9549ZM10.9549 6.95564C10.9549 6.29881 11.4872 5.76565 12.1449 5.76565V7.62183C12.5131 7.62183 12.8111 7.32318 12.8111 6.95564H10.9549ZM12.1449 5.76565C12.8018 5.76565 13.3349 6.29788 13.3349 6.95564H11.4787C11.4787 7.32378 11.7774 7.62183 12.1449 7.62183V5.76565ZM13.3349 6.95568L13.3347 10.452L11.4786 10.4519L11.4787 6.95559L13.3349 6.95568ZM13.3347 10.4519V10.4926H11.4786V10.4519H13.3347ZM13.3347 10.4926C13.3347 10.2339 13.1259 10.026 12.8685 10.026V11.8822C12.1017 11.8822 11.4786 11.26 11.4786 10.4926H13.3347ZM12.8685 10.026C12.7451 10.026 12.6257 10.0761 12.5403 10.1613L13.8503 11.4763C13.5897 11.7359 13.2387 11.8822 12.8685 11.8822V10.026ZM12.5397 10.1619C12.4509 10.2505 12.402 10.3716 12.402 10.4924H14.2582C14.2582 10.8609 14.1135 11.2136 13.8509 11.4757L12.5397 10.1619ZM12.402 10.4924V6.95546H14.2582V10.4924H12.402ZM12.402 6.95546C12.402 6.29861 12.9342 5.76547 13.592 5.76547V7.62165C13.9601 7.62165 14.2582 7.32301 14.2582 6.95546H12.402ZM13.592 5.76547C14.2488 5.76547 14.782 6.2977 14.782 6.95546H12.9258C12.9258 7.3236 13.2244 7.62165 13.592 7.62165V5.76547ZM14.782 6.95557L14.7817 9.62538L12.9255 9.62515L12.9258 6.95534L14.782 6.95557ZM14.7817 9.62526C14.7817 9.36781 14.5737 9.15897 14.315 9.15897V11.0152C13.5477 11.0152 12.9255 10.3921 12.9255 9.62526H14.7817ZM14.315 9.15897C14.1933 9.15897 14.0732 9.20827 13.9859 9.29539L15.2972 10.6091C15.0361 10.8698 14.6844 11.0152 14.315 11.0152V9.15897ZM13.9853 9.29601C13.8969 9.38438 13.8484 9.50499 13.8484 9.62526H15.7046C15.7046 9.99283 15.5607 10.3457 15.2978 10.6085L13.9853 9.29601ZM13.8484 9.62524L13.8486 4.21375L15.7048 4.2138L15.7046 9.62529L13.8484 9.62524ZM13.8486 4.21377C13.8486 2.83704 12.8475 1.86856 11.7987 1.86856V0.0123781C14.034 0.0123781 15.7048 1.98106 15.7048 4.21377H13.8486ZM10.9063 0.685504L10.9063 0.68545L12.6911 1.19538L12.6911 1.19544L10.9063 0.685504Z" fill="#4CAF4F" mask="url(#path-1-inside-1_1_2)"/>
<path d="M4.09643 12.0165L4.0964 12.0166L4.09643 12.0165ZM4.09643 12.0165C3.95982 11.9407 3.81174 11.9048 3.66578 11.9048C3.42147 11.9047 3.18295 12.0055 3.01308 12.1887L4.09643 12.0165ZM1.35982 16.0708L1.35979 16.0708L1.35982 16.0708ZM10.1161 17.5366C10.1161 17.5366 10.1162 17.5365 10.1162 17.5365L10.1161 17.5366ZM10.1163 17.5365C10.2365 17.4642 10.3198 17.3516 10.3539 17.2159C10.3539 17.2159 10.3539 17.2159 10.3539 17.2159L10.2965 17.2015L10.3539 17.2158C10.3876 17.0802 10.3671 16.9419 10.2948 16.8214L10.1163 17.5365ZM10.2404 13.8603L10.2407 13.8604L10.2404 13.8603ZM2.78479 12.5473C2.79499 12.529 2.80452 12.5118 2.81336 12.4959C2.84902 12.4316 2.87317 12.3881 2.88287 12.3707L2.93563 12.3984C2.90303 12.4572 2.87105 12.5148 2.83968 12.5713C2.82131 12.5644 2.80297 12.5564 2.78479 12.5473ZM4.05827 13.2342L4.0583 13.2342L4.05827 13.2342ZM10.7463 17.314C10.7463 17.3141 10.7463 17.3142 10.7463 17.3143L10.804 17.3287C10.8678 17.0734 10.8283 16.8086 10.6926 16.5826L10.6651 16.5991L10.7463 17.314ZM10.3241 17.8834L10.3548 17.9345L10.3241 17.8834ZM7.0826 17.6691C7.08256 17.6691 7.08251 17.6691 7.08246 17.6692L7.0826 17.6691Z" fill="#4CAF4F" stroke="#4CAF4F" stroke-width="0.928093"/>
<mask id="path-4-inside-2_1_2" fill="white">
<path d="M22.1852 19.6686C21.7019 20.4746 20.907 21.0263 19.9469 21.2224C18.9952 21.4164 17.9943 21.2375 17.1281 20.7181L12.4874 17.9342C12.2616 17.7988 12.1019 17.5836 12.0379 17.3281C11.9745 17.0731 12.0142 16.8082 12.1494 16.5826C12.2339 16.4415 12.3523 16.3304 12.4896 16.2482L12.4883 16.2474C12.2624 16.1119 12.1027 15.8968 12.0391 15.6416C11.9751 15.3864 12.0148 15.1214 12.1503 14.8954C12.2375 14.7503 12.3571 14.6368 12.4935 14.5563C12.2954 14.42 12.1527 14.2221 12.094 13.9872C12.0301 13.7319 12.0698 13.467 12.2052 13.2414C12.3405 13.0155 12.5558 12.856 12.811 12.7922C12.8907 12.7722 12.9716 12.7624 13.0516 12.7624C13.2087 12.7625 13.3629 12.8024 13.5045 12.8765C13.5132 12.693 13.5678 12.5128 13.6751 12.3581C13.9691 11.9339 14.5582 11.8164 15.017 12.0918L18.8173 14.3713L18.3274 13.489C18.1395 13.1521 18.1464 12.7366 18.3456 12.4043C18.4427 12.2426 18.5814 12.1083 18.7472 12.0153C18.8835 11.9399 19.0311 11.9042 19.1767 11.9042C19.4894 11.9043 19.7932 12.0693 19.9548 12.3614C20.5183 13.3767 21.5817 15.2914 21.6564 15.4251C21.6723 15.4482 21.7204 15.5171 21.7615 15.5757C21.8007 15.6312 21.843 15.6844 21.8868 15.7372C22.8357 16.8874 22.9502 18.3937 22.1851 19.6686L22.1852 19.6686ZM21.4828 16.0709C21.4307 16.0078 21.3795 15.9433 21.3329 15.8769C21.1912 15.6759 21.1876 15.6706 21.177 15.618C21.0113 15.344 20.6073 14.6165 19.4965 12.6154C19.3991 12.4398 19.1777 12.3757 19.0015 12.4731C18.9147 12.5216 18.845 12.5894 18.7942 12.6741C18.6912 12.8458 18.6872 13.0603 18.7845 13.2345L19.7484 14.9714C19.806 15.075 19.7868 15.2042 19.7017 15.2866C19.6168 15.369 19.4869 15.3835 19.3849 15.3228L14.7475 12.5408C14.5289 12.4098 14.2408 12.4611 14.1057 12.6563C14.0279 12.7684 14.0032 12.9022 14.0356 13.033C14.0655 13.1523 14.1404 13.253 14.2465 13.3167C14.2469 13.3168 14.247 13.3172 14.2474 13.3173L17.2794 15.1363C17.4034 15.2108 17.4436 15.3715 17.3691 15.4956C17.2947 15.6194 17.1341 15.6599 17.0098 15.5853L13.2873 13.3523C13.1817 13.289 13.0574 13.2703 12.938 13.3003C12.8183 13.3301 12.7176 13.4049 12.6542 13.511C12.5905 13.6168 12.5722 13.7409 12.6017 13.8603C12.6315 13.9797 12.7065 14.0805 12.8124 14.1442L13.5368 14.5786L16.5347 16.3773C16.6587 16.4517 16.6989 16.6124 16.6244 16.7366C16.55 16.8604 16.3894 16.9007 16.2651 16.8263L13.2324 15.0068C13.0143 14.8756 12.7303 14.9468 12.5991 15.1652C12.5355 15.2711 12.5171 15.3953 12.5466 15.5147C12.5764 15.6341 12.6514 15.7348 12.7575 15.7985L13.501 16.2446L15.7902 17.618C15.9142 17.6925 15.9544 17.8532 15.8799 17.9774C15.8054 18.1012 15.6449 18.1418 15.5206 18.0671L13.2314 16.6936C13.1258 16.6303 13.002 16.6116 12.882 16.6416C12.7626 16.6715 12.6616 16.7463 12.5981 16.852C12.5346 16.958 12.5161 17.0823 12.5456 17.2015C12.5755 17.3209 12.6504 17.4216 12.7565 17.4854L17.3972 20.2693C18.1503 20.7211 19.0188 20.8775 19.8417 20.7096C20.6561 20.5433 21.3288 20.0781 21.7358 19.3995C22.3936 18.3036 22.299 17.0593 21.4831 16.0709L21.4828 16.0709Z"/>
</mask>
<path d="M22.1852 19.6686C21.7019 20.4746 20.907 21.0263 19.9469 21.2224C18.9952 21.4164 17.9943 21.2375 17.1281 20.7181L12.4874 17.9342C12.2616 17.7988 12.1019 17.5836 12.0379 17.3281C11.9745 17.0731 12.0142 16.8082 12.1494 16.5826C12.2339 16.4415 12.3523 16.3304 12.4896 16.2482L12.4883 16.2474C12.2624 16.1119 12.1027 15.8968 12.0391 15.6416C11.9751 15.3864 12.0148 15.1214 12.1503 14.8954C12.2375 14.7503 12.3571 14.6368 12.4935 14.5563C12.2954 14.42 12.1527 14.2221 12.094 13.9872C12.0301 13.7319 12.0698 13.467 12.2052 13.2414C12.3405 13.0155 12.5558 12.856 12.811 12.7922C12.8907 12.7722 12.9716 12.7624 13.0516 12.7624C13.2087 12.7625 13.3629 12.8024 13.5045 12.8765C13.5132 12.693 13.5678 12.5128 13.6751 12.3581C13.9691 11.9339 14.5582 11.8164 15.017 12.0918L18.8173 14.3713L18.3274 13.489C18.1395 13.1521 18.1464 12.7366 18.3456 12.4043C18.4427 12.2426 18.5814 12.1083 18.7472 12.0153C18.8835 11.9399 19.0311 11.9042 19.1767 11.9042C19.4894 11.9043 19.7932 12.0693 19.9548 12.3614C20.5183 13.3767 21.5817 15.2914 21.6564 15.4251C21.6723 15.4482 21.7204 15.5171 21.7615 15.5757C21.8007 15.6312 21.843 15.6844 21.8868 15.7372C22.8357 16.8874 22.9502 18.3937 22.1851 19.6686L22.1852 19.6686ZM21.4828 16.0709C21.4307 16.0078 21.3795 15.9433 21.3329 15.8769C21.1912 15.6759 21.1876 15.6706 21.177 15.618C21.0113 15.344 20.6073 14.6165 19.4965 12.6154C19.3991 12.4398 19.1777 12.3757 19.0015 12.4731C18.9147 12.5216 18.845 12.5894 18.7942 12.6741C18.6912 12.8458 18.6872 13.0603 18.7845 13.2345L19.7484 14.9714C19.806 15.075 19.7868 15.2042 19.7017 15.2866C19.6168 15.369 19.4869 15.3835 19.3849 15.3228L14.7475 12.5408C14.5289 12.4098 14.2408 12.4611 14.1057 12.6563C14.0279 12.7684 14.0032 12.9022 14.0356 13.033C14.0655 13.1523 14.1404 13.253 14.2465 13.3167C14.2469 13.3168 14.247 13.3172 14.2474 13.3173L17.2794 15.1363C17.4034 15.2108 17.4436 15.3715 17.3691 15.4956C17.2947 15.6194 17.1341 15.6599 17.0098 15.5853L13.2873 13.3523C13.1817 13.289 13.0574 13.2703 12.938 13.3003C12.8183 13.3301 12.7176 13.4049 12.6542 13.511C12.5905 13.6168 12.5722 13.7409 12.6017 13.8603C12.6315 13.9797 12.7065 14.0805 12.8124 14.1442L13.5368 14.5786L16.5347 16.3773C16.6587 16.4517 16.6989 16.6124 16.6244 16.7366C16.55 16.8604 16.3894 16.9007 16.2651 16.8263L13.2324 15.0068C13.0143 14.8756 12.7303 14.9468 12.5991 15.1652C12.5355 15.2711 12.5171 15.3953 12.5466 15.5147C12.5764 15.6341 12.6514 15.7348 12.7575 15.7985L13.501 16.2446L15.7902 17.618C15.9142 17.6925 15.9544 17.8532 15.8799 17.9774C15.8054 18.1012 15.6449 18.1418 15.5206 18.0671L13.2314 16.6936C13.1258 16.6303 13.002 16.6116 12.882 16.6416C12.7626 16.6715 12.6616 16.7463 12.5981 16.852C12.5346 16.958 12.5161 17.0823 12.5456 17.2015C12.5755 17.3209 12.6504 17.4216 12.7565 17.4854L17.3972 20.2693C18.1503 20.7211 19.0188 20.8775 19.8417 20.7096C20.6561 20.5433 21.3288 20.0781 21.7358 19.3995C22.3936 18.3036 22.299 17.0593 21.4831 16.0709L21.4828 16.0709Z" fill="#4CAF4F"/>
<path d="M22.1852 19.6686L21.8917 18.7881L24.2708 17.9951L22.9811 20.1459L22.1852 19.6686ZM19.9469 21.2224L20.1326 22.1317L20.1322 22.1318L19.9469 21.2224ZM17.1281 20.7181L16.6509 21.5141L16.6507 21.514L17.1281 20.7181ZM12.4874 17.9342L12.9649 17.1383L12.9649 17.1384L12.4874 17.9342ZM12.0379 17.3281L11.1376 17.5534L11.1373 17.5522L12.0379 17.3281ZM12.1494 16.5826L12.9457 17.0594L12.9454 17.0598L12.1494 16.5826ZM12.4896 16.2482L12.9813 15.4611L14.2683 16.2652L12.9662 17.0445L12.4896 16.2482ZM12.4883 16.2474L12.9657 15.4515L12.9729 15.4558L12.98 15.4603L12.4883 16.2474ZM12.0391 15.6416L12.9393 15.4159L12.9396 15.4171L12.0391 15.6416ZM12.1503 14.8954L11.3543 14.4182L11.3548 14.4173L12.1503 14.8954ZM12.4935 14.5563L13.0195 13.7916L14.2181 14.6162L12.9652 15.3556L12.4935 14.5563ZM12.094 13.9872L12.9943 13.7617L12.9944 13.7621L12.094 13.9872ZM12.2052 13.2414L13.0013 13.7184L13.0009 13.719L12.2052 13.2414ZM12.811 12.7922L13.037 13.6924L13.0361 13.6926L12.811 12.7922ZM13.0516 12.7624L13.0516 11.8343L13.0526 11.8343L13.0516 12.7624ZM13.5045 12.8765L14.4316 12.9204L14.3628 14.373L13.0743 13.6988L13.5045 12.8765ZM13.6751 12.3581L14.4379 12.8868L14.4377 12.887L13.6751 12.3581ZM15.017 12.0918L14.5396 12.8877L14.5395 12.8876L15.017 12.0918ZM18.8173 14.3713L19.6287 13.9208L21.3097 16.9486L18.3399 15.1672L18.8173 14.3713ZM18.3274 13.489L19.1379 13.0368L19.1388 13.0385L18.3274 13.489ZM18.3456 12.4043L17.5497 11.927L17.5499 11.9266L18.3456 12.4043ZM18.7472 12.0153L18.2933 11.2058L18.2978 11.2034L18.7472 12.0153ZM19.1767 11.9042L19.1767 10.9761L19.1772 10.9761L19.1767 11.9042ZM19.9548 12.3614L19.1434 12.8118L19.1428 12.8108L19.9548 12.3614ZM21.6564 15.4251L20.8918 15.9511L20.8674 15.9157L20.8464 15.8782L21.6564 15.4251ZM21.7615 15.5757L21.003 16.1104L21.0023 16.1095L21.7615 15.5757ZM21.8868 15.7372L22.6013 15.1448L22.6028 15.1466L21.8868 15.7372ZM22.1851 19.6686L22.4786 20.5491L20.0984 21.3425L21.3893 19.1911L22.1851 19.6686ZM21.4828 16.0709L21.574 16.9945L21.082 17.0431L20.7672 16.662L21.4828 16.0709ZM21.3329 15.8769L22.0916 15.3423L22.0928 15.3441L21.3329 15.8769ZM21.177 15.618L21.9712 15.1379L22.0546 15.2758L22.0866 15.4338L21.177 15.618ZM19.4965 12.6154L18.6851 13.0658L18.6849 13.0656L19.4965 12.6154ZM19.0015 12.4731L18.5483 11.6631L18.5526 11.6608L19.0015 12.4731ZM18.7942 12.6741L19.5901 13.1514L19.5901 13.1515L18.7942 12.6741ZM18.7845 13.2345L19.5948 12.7821L19.596 12.7841L18.7845 13.2345ZM19.7484 14.9714L18.9371 15.422L18.937 15.4217L19.7484 14.9714ZM19.7017 15.2866L19.0552 14.6207L19.0565 14.6194L19.7017 15.2866ZM19.3849 15.3228L18.9104 16.1204L18.9074 16.1187L19.3849 15.3228ZM14.7475 12.5408L15.2247 11.7448L15.225 11.7449L14.7475 12.5408ZM14.1057 12.6563L14.8687 13.1846L14.8685 13.1849L14.1057 12.6563ZM14.0356 13.033L13.1353 13.258L13.1349 13.2567L14.0356 13.033ZM14.2465 13.3167L13.8314 14.1467L13.7996 14.1309L13.7692 14.1126L14.2465 13.3167ZM14.2474 13.3173L14.6625 12.4872L14.6943 12.5032L14.7248 12.5215L14.2474 13.3173ZM17.2794 15.1363L17.7569 14.3405L17.7572 14.3407L17.2794 15.1363ZM17.3691 15.4956L18.165 15.973L18.1645 15.9739L17.3691 15.4956ZM17.0098 15.5853L17.4873 14.7895L17.4875 14.7896L17.0098 15.5853ZM13.2873 13.3523L13.7645 12.5562L13.7648 12.5564L13.2873 13.3523ZM12.938 13.3003L13.1643 14.2004L13.1626 14.2008L12.938 13.3003ZM12.6542 13.511L13.4507 13.9874L13.4495 13.9894L12.6542 13.511ZM12.6017 13.8603L11.7013 14.0854L11.7007 14.0831L12.6017 13.8603ZM12.8124 14.1442L12.3351 14.9401L12.3346 14.9398L12.8124 14.1442ZM13.5368 14.5786L14.0141 13.7827L14.0143 13.7828L13.5368 14.5786ZM16.5347 16.3773L17.0122 15.5814L17.0125 15.5816L16.5347 16.3773ZM16.6244 16.7366L17.4203 17.214L17.4198 17.2149L16.6244 16.7366ZM16.2651 16.8263L15.7882 17.6225L15.7876 17.6221L16.2651 16.8263ZM13.2324 15.0068L12.7549 15.8026L12.754 15.8021L13.2324 15.0068ZM12.5991 15.1652L13.3947 15.6431L13.3947 15.6431L12.5991 15.1652ZM12.5466 15.5147L11.6462 15.7398L11.6456 15.7374L12.5466 15.5147ZM12.7575 15.7985L12.28 16.5944L12.2793 16.5939L12.7575 15.7985ZM13.501 16.2446L13.9785 15.4487L13.9785 15.4488L13.501 16.2446ZM15.7902 17.618L16.2677 16.8222L16.268 16.8224L15.7902 17.618ZM15.8799 17.9774L16.6758 18.4547L16.6753 18.4556L15.8799 17.9774ZM15.5206 18.0671L15.9981 17.2712L15.999 17.2718L15.5206 18.0671ZM13.2314 16.6936L13.7086 15.8976L13.7089 15.8978L13.2314 16.6936ZM12.882 16.6416L12.6569 15.7412L12.6569 15.7412L12.882 16.6416ZM12.5981 16.852L11.8019 16.3751L11.8023 16.3745L12.5981 16.852ZM12.5456 17.2015L11.6452 17.4266L11.6447 17.4245L12.5456 17.2015ZM12.7565 17.4854L12.2791 18.2812L12.2783 18.2808L12.7565 17.4854ZM17.3972 20.2693L17.8746 19.4734L17.8747 19.4734L17.3972 20.2693ZM19.8417 20.7096L20.0274 21.6189L20.0273 21.6189L19.8417 20.7096ZM21.7358 19.3995L20.9399 18.9221L20.9401 18.9218L21.7358 19.3995ZM21.4831 16.0709L21.392 15.1473L21.8841 15.0987L22.1988 15.4801L21.4831 16.0709ZM22.9811 20.1459C22.3576 21.1857 21.3353 21.8861 20.1326 22.1317L19.7611 20.3131C20.4787 20.1665 21.0461 19.7635 21.3892 19.1913L22.9811 20.1459ZM20.1322 22.1318C18.9436 22.3741 17.7074 22.1476 16.6509 21.5141L17.6054 19.9222C18.2813 20.3274 19.0468 20.4587 19.7615 20.313L20.1322 22.1318ZM16.6507 21.514L12.01 18.7301L12.9649 17.1384L17.6056 19.9223L16.6507 21.514ZM12.01 18.7301C11.5736 18.4683 11.2614 18.0481 11.1376 17.5534L12.9383 17.1027C12.9408 17.1128 12.9443 17.1191 12.9474 17.1232C12.9505 17.1275 12.9556 17.1328 12.9649 17.1383L12.01 18.7301ZM11.1373 17.5522C11.0144 17.0582 11.0921 16.5412 11.3535 16.1053L12.9454 17.0598C12.9399 17.0691 12.9378 17.0763 12.937 17.0817C12.9362 17.087 12.9361 17.0942 12.9386 17.1039L11.1373 17.5522ZM11.3532 16.1058C11.5253 15.8184 11.7604 15.603 12.0129 15.4518L12.9662 17.0445C12.9549 17.0513 12.9489 17.0566 12.9465 17.0589C12.9443 17.061 12.9446 17.0611 12.9457 17.0594L11.3532 16.1058ZM11.9978 17.0353L11.9965 17.0345L12.98 15.4603L12.9813 15.4611L11.9978 17.0353ZM12.0108 17.0433C11.5746 16.7816 11.262 16.3613 11.1386 15.8661L12.9396 15.4171C12.942 15.4265 12.9453 15.4324 12.9483 15.4365C12.9513 15.4406 12.9564 15.4459 12.9657 15.4515L12.0108 17.0433ZM11.1388 15.8672C11.0147 15.3721 11.0928 14.8543 11.3543 14.4182L12.9463 15.3726C12.9406 15.3821 12.9386 15.3894 12.9378 15.3945C12.9371 15.3996 12.937 15.4064 12.9393 15.4159L11.1388 15.8672ZM11.3548 14.4173C11.5262 14.1322 11.7603 13.9113 12.0218 13.757L12.9652 15.3556C12.9592 15.3591 12.9551 15.3625 12.9524 15.3651C12.9498 15.3676 12.9477 15.3703 12.9457 15.3736L11.3548 14.4173ZM11.9675 15.3209C11.5926 15.063 11.31 14.6777 11.1936 14.2123L12.9944 13.7621C12.9955 13.7665 12.997 13.7696 12.9994 13.773C13.002 13.7767 13.0078 13.7836 13.0195 13.7916L11.9675 15.3209ZM11.1937 14.2127C11.0697 13.7177 11.1476 13.1999 11.4095 12.7637L13.0009 13.719C12.9954 13.7282 12.9935 13.7352 12.9928 13.7402C12.992 13.7451 12.9919 13.752 12.9943 13.7617L11.1937 14.2127ZM11.4091 12.7644C11.671 12.3272 12.0918 12.0153 12.586 11.8918L13.0361 13.6926C13.0262 13.6951 13.02 13.6985 13.0159 13.7016C13.0118 13.7046 13.0066 13.7095 13.0013 13.7184L11.4091 12.7644ZM12.585 11.892C12.7388 11.8534 12.8955 11.8343 13.0516 11.8343V13.6904C13.0476 13.6904 13.0426 13.6909 13.037 13.6924L12.585 11.892ZM13.0526 11.8343C13.3678 11.8346 13.6685 11.9148 13.9348 12.0541L13.0743 13.6988C13.0655 13.6942 13.0592 13.6922 13.0557 13.6913C13.0523 13.6904 13.0507 13.6904 13.0506 13.6904L13.0526 11.8343ZM12.5775 12.8326C12.5935 12.4951 12.6952 12.1424 12.9124 11.8292L14.4377 12.887C14.4404 12.8831 14.433 12.8909 14.4316 12.9204L12.5775 12.8326ZM12.9123 11.8294C13.5002 10.9813 14.6398 10.7831 15.4946 11.2959L14.5395 12.8876C14.5125 12.8714 14.4859 12.8688 14.4652 12.8729C14.4448 12.8769 14.4393 12.8848 14.4379 12.8868L12.9123 11.8294ZM15.4944 11.2959L19.2947 13.5754L18.3399 15.1672L14.5396 12.8877L15.4944 11.2959ZM18.0058 14.8218L17.516 13.9395L19.1388 13.0385L19.6287 13.9208L18.0058 14.8218ZM17.5169 13.9412C17.1664 13.3129 17.1804 12.5428 17.5497 11.927L19.1416 12.8817C19.1124 12.9303 19.1126 12.9914 19.1379 13.0368L17.5169 13.9412ZM17.5499 11.9266C17.7309 11.6251 17.988 11.377 18.2933 11.2059L19.2012 12.8248C19.1749 12.8396 19.1545 12.8601 19.1413 12.8821L17.5499 11.9266ZM18.2978 11.2034C18.5754 11.0496 18.8783 10.9761 19.1767 10.9761V12.8322C19.1799 12.8322 19.1836 12.8318 19.1875 12.8309C19.1915 12.8298 19.1947 12.8284 19.1967 12.8273L18.2978 11.2034ZM19.1772 10.9761C19.8114 10.9764 20.4342 11.311 20.7669 11.9119L19.1428 12.8108C19.1443 12.8135 19.1468 12.817 19.1502 12.8204C19.1534 12.8237 19.1568 12.8261 19.1597 12.8278C19.165 12.8309 19.1702 12.8322 19.1762 12.8322L19.1772 10.9761ZM20.7663 11.911C21.3305 12.9275 22.3926 14.8401 22.4664 14.972L20.8464 15.8782C20.7707 15.7427 19.7062 13.8258 19.1434 12.8118L20.7663 11.911ZM22.4211 14.8991C22.4342 14.9181 22.48 14.9838 22.5208 15.0418L21.0023 16.1095C20.9608 16.0504 20.9105 15.9783 20.8918 15.9511L22.4211 14.8991ZM22.5201 15.0409C22.5393 15.0681 22.5643 15.1002 22.6013 15.1448L21.1724 16.3296C21.1218 16.2685 21.0622 16.1944 21.003 16.1104L22.5201 15.0409ZM22.6028 15.1466C23.8007 16.5987 23.9491 18.5327 22.981 20.1461L21.3893 19.1911C21.9512 18.2546 21.8707 17.1761 21.1709 16.3278L22.6028 15.1466ZM21.8917 18.7881L21.8917 18.7881L22.4787 20.5491L22.4786 20.5491L21.8917 18.7881ZM20.7672 16.662C20.7086 16.591 20.6399 16.5051 20.573 16.4098L22.0928 15.3441C22.1191 15.3816 22.1527 15.4246 22.1984 15.4799L20.7672 16.662ZM20.5743 16.4116C20.5159 16.3287 20.4531 16.2406 20.4114 16.1716C20.3835 16.1255 20.3462 16.0581 20.3147 15.9722C20.284 15.8886 20.2703 15.817 20.2673 15.8022L22.0866 15.4338C22.0889 15.4453 22.0797 15.3941 22.0572 15.3326C22.0337 15.2688 22.0082 15.2251 22.0002 15.212C21.9965 15.2057 21.995 15.2037 21.9979 15.2081C22.0007 15.2123 22.0057 15.2196 22.014 15.2317C22.0313 15.2568 22.0551 15.2906 22.0916 15.3423L20.5743 16.4116ZM20.3827 16.0981C20.2054 15.8047 19.788 15.0529 18.6851 13.0658L20.308 12.165C21.4265 14.1801 21.8173 14.8832 21.9712 15.1379L20.3827 16.0981ZM18.6849 13.0656C18.8352 13.3365 19.1773 13.4363 19.4503 13.2854L18.5526 11.6608C19.1782 11.3151 19.9631 11.5431 20.3082 12.1653L18.6849 13.0656ZM19.4546 13.283C19.5092 13.2525 19.5577 13.2055 19.5901 13.1514L17.9982 12.1969C18.1323 11.9732 18.3202 11.7908 18.5483 11.6632L19.4546 13.283ZM19.5901 13.1515C19.6565 13.0407 19.661 12.9006 19.5948 12.7821L17.9741 13.687C17.7135 13.2201 17.7258 12.6509 17.9983 12.1968L19.5901 13.1515ZM19.596 12.7841L20.5599 14.521L18.937 15.4217L17.973 13.6849L19.596 12.7841ZM20.5598 14.5208C20.8211 14.9912 20.7343 15.579 20.3469 15.9537L19.0565 14.6194C18.8393 14.8295 18.7909 15.1588 18.9371 15.422L20.5598 14.5208ZM20.3483 15.9524C19.9578 16.3315 19.3674 16.3923 18.9104 16.1204L19.8593 14.5252C19.6063 14.3746 19.2757 14.4066 19.0552 14.6207L20.3483 15.9524ZM18.9074 16.1187L14.2701 13.3367L15.225 11.7449L19.8623 14.5269L18.9074 16.1187ZM14.2704 13.3368C14.3609 13.3911 14.4632 13.4069 14.5591 13.3897C14.6551 13.3725 14.7788 13.3144 14.8687 13.1846L13.3427 12.1279C13.7894 11.4828 14.6387 11.3935 15.2247 11.7448L14.2704 13.3368ZM14.8685 13.1849C14.9409 13.0803 14.969 12.9405 14.9364 12.8092L13.1349 13.2567C13.0374 12.864 13.1149 12.4565 13.3428 12.1276L14.8685 13.1849ZM14.936 12.8079C14.9056 12.6863 14.8271 12.5826 14.7238 12.5207L13.7692 14.1126C13.4538 13.9234 13.2253 13.6184 13.1353 13.258L14.936 12.8079ZM14.6617 12.4866C14.7456 12.5285 14.8073 12.5753 14.8463 12.6084C14.8656 12.6247 14.8804 12.6386 14.8894 12.6472C14.894 12.6516 14.8976 12.6552 14.8998 12.6574C14.901 12.6585 14.9019 12.6594 14.9024 12.6599C14.9027 12.6602 14.9029 12.6605 14.9031 12.6606C14.9031 12.6607 14.9032 12.6607 14.9032 12.6608C14.9033 12.6608 14.9033 12.6608 14.9033 12.6608C14.9033 12.6608 14.9033 12.6608 14.9033 12.6608C14.9033 12.6608 14.9033 12.6608 14.9033 12.6608C14.9036 12.6611 14.9019 12.6594 14.8999 12.6575C14.8977 12.6553 14.8941 12.6517 14.8896 12.6474C14.8807 12.6388 14.8659 12.625 14.8467 12.6088C14.8078 12.5758 14.7462 12.5291 14.6625 12.4872L13.8322 14.1474C13.7483 14.1054 13.6866 14.0586 13.6475 14.0256C13.6283 14.0093 13.6135 13.9954 13.6045 13.9868C13.5999 13.9824 13.5963 13.9788 13.5941 13.9766C13.5929 13.9755 13.592 13.9746 13.5915 13.974C13.5912 13.9737 13.5909 13.9735 13.5908 13.9734C13.5907 13.9733 13.5907 13.9732 13.5906 13.9732C13.5906 13.9732 13.5906 13.9732 13.5906 13.9732C13.5906 13.9732 13.5906 13.9732 13.5906 13.9732C13.5906 13.9732 13.5906 13.9731 13.5906 13.9731C13.5903 13.9728 13.592 13.9745 13.594 13.9765C13.5961 13.9787 13.5998 13.9822 13.6043 13.9866C13.6132 13.9951 13.628 14.009 13.6472 14.0252C13.6861 14.0582 13.7477 14.1048 13.8314 14.1467L14.6617 12.4866ZM14.7248 12.5215L17.7569 14.3405L16.802 15.9322L13.7699 14.1132L14.7248 12.5215ZM17.7572 14.3407C18.3206 14.679 18.5029 15.4096 18.165 15.973L16.5732 15.0183C16.3842 15.3333 16.4862 15.7425 16.8016 15.932L17.7572 14.3407ZM18.1645 15.9739C17.827 16.5352 17.0972 16.7203 16.5321 16.3811L17.4875 14.7896C17.171 14.5996 16.7624 14.7037 16.5738 15.0174L18.1645 15.9739ZM16.5324 16.3812L12.8099 14.1481L13.7648 12.5564L17.4873 14.7895L16.5324 16.3812ZM12.8102 14.1483C12.9145 14.2108 13.043 14.2308 13.1643 14.2004L12.7118 12.4002C13.0718 12.3097 13.449 12.3671 13.7645 12.5562L12.8102 14.1483ZM13.1626 14.2008C13.2831 14.1707 13.3879 14.0924 13.4507 13.9874L11.8577 13.0346C12.0474 12.7174 12.3536 12.4895 12.7135 12.3997L13.1626 14.2008ZM13.4495 13.9894C13.5132 13.8834 13.5318 13.7553 13.5027 13.6375L11.7007 14.0831C11.6126 13.7266 11.6679 13.3501 11.8589 13.0326L13.4495 13.9894ZM13.5021 13.6352C13.4719 13.5143 13.3938 13.4107 13.2903 13.3486L12.3346 14.9398C12.0192 14.7504 11.7912 14.4451 11.7013 14.0854L13.5021 13.6352ZM13.2898 13.3482L14.0141 13.7827L13.0594 15.3745L12.3351 14.9401L13.2898 13.3482ZM14.0143 13.7828L17.0122 15.5814L16.0572 17.1731L13.0593 15.3744L14.0143 13.7828ZM17.0125 15.5816C17.5759 15.92 17.7582 16.6506 17.4203 17.214L15.8285 16.2592C15.6395 16.5743 15.7415 16.9835 16.0569 17.1729L17.0125 15.5816ZM17.4198 17.2149C17.0818 17.777 16.3521 17.9602 15.7882 17.6225L16.742 16.0301C16.4267 15.8413 16.0182 15.9438 15.8291 16.2583L17.4198 17.2149ZM15.7876 17.6221L12.7549 15.8026L13.7099 14.2109L16.7426 16.0304L15.7876 17.6221ZM12.754 15.8021C12.9769 15.9362 13.2628 15.8627 13.3947 15.6431L11.8035 14.6874C12.1978 14.0308 13.0517 13.815 13.7108 14.2115L12.754 15.8021ZM13.3947 15.6431C13.458 15.5377 13.4767 15.4098 13.4476 15.2919L11.6456 15.7374C11.5575 15.3808 11.6129 15.0046 11.8035 14.6873L13.3947 15.6431ZM13.447 15.2896C13.4166 15.1679 13.3381 15.0647 13.2357 15.0031L12.2793 16.5939C11.9647 16.4048 11.7363 16.1002 11.6462 15.7398L13.447 15.2896ZM13.2349 15.0027L13.9785 15.4487L13.0236 17.0405L12.28 16.5944L13.2349 15.0027ZM13.9785 15.4488L16.2677 16.8222L15.3127 18.4139L13.0236 17.0404L13.9785 15.4488ZM16.268 16.8224C16.8314 17.1607 17.0137 17.8913 16.6758 18.4547L15.084 17.5C14.895 17.8151 14.9969 18.2243 15.3124 18.4137L16.268 16.8224ZM16.6753 18.4556C16.3383 19.016 15.6085 19.203 15.0422 18.8623L15.999 17.2718C15.6813 17.0807 15.2726 17.1863 15.0845 17.4991L16.6753 18.4556ZM15.0431 18.8629L12.7539 17.4895L13.7089 15.8978L15.9981 17.2712L15.0431 18.8629ZM12.7543 17.4897C12.8588 17.5523 12.9875 17.5719 13.107 17.542L12.6569 15.7412C13.0165 15.6513 13.3928 15.7083 13.7086 15.8976L12.7543 17.4897ZM13.1071 17.542C13.2265 17.5122 13.3308 17.4348 13.3939 17.3295L11.8023 16.3745C11.9924 16.0577 12.2987 15.8308 12.6569 15.7412L13.1071 17.542ZM13.3943 17.329C13.4566 17.2249 13.476 17.0976 13.4465 16.9784L11.6447 17.4245C11.5562 17.067 11.6126 16.6911 11.8019 16.3751L13.3943 17.329ZM13.446 16.9764C13.4156 16.8547 13.3371 16.7515 13.2347 16.69L12.2783 18.2808C11.9637 18.0917 11.7353 17.787 11.6452 17.4266L13.446 16.9764ZM13.2339 16.6895L17.8746 19.4734L16.9198 21.0652L12.2791 18.2812L13.2339 16.6895ZM17.8747 19.4734C18.4387 19.8118 19.0718 19.9195 19.6561 19.8002L20.0273 21.6189C18.9658 21.8356 17.8619 21.6304 16.9197 21.0651L17.8747 19.4734ZM19.656 19.8003C20.23 19.6831 20.6742 19.3651 20.9399 18.9221L22.5317 19.8768C21.9834 20.791 21.0821 21.4035 20.0274 21.6189L19.656 19.8003ZM20.9401 18.9218C21.3946 18.1645 21.3339 17.3481 20.7673 16.6617L22.1988 15.4801C23.264 16.7705 23.3925 18.4427 22.5315 19.8771L20.9401 18.9218ZM21.5742 16.9945L21.574 16.9945L21.3917 15.1473L21.392 15.1473L21.5742 16.9945Z" fill="#4CAF4F" mask="url(#path-4-inside-2_1_2)"/>
</svg>
