<svg width="20" height="20" viewBox="0 0 14 13" fill="none" xmlns="http://www.w3.org/2000/svg">
<g clip-path="url(#clip0_442_231)">
<path fill-rule="evenodd" clip-rule="evenodd" d="M12.4608 0.766903C12.6026 0.908712 12.6506 1.11922 12.5844 1.30851L8.93002 11.7496C8.8593 11.9516 8.67243 12.09 8.45855 12.0987C8.24468 12.1074 8.04715 11.9847 7.96021 11.7891L5.95355 7.27413L1.43857 5.26747C1.24297 5.18054 1.12025 4.98301 1.12898 4.76913C1.1377 4.55526 1.2761 4.36838 1.47813 4.29767L11.9192 0.643307C12.1085 0.577055 12.319 0.625094 12.4608 0.766903ZM6.97174 6.99424L8.37953 10.1618L10.8432 3.12282L6.97174 6.99424ZM10.1049 2.38452L3.06592 4.84816L6.23345 6.25595L10.1049 2.38452Z" fill="white"/>
</g>
<defs>
<clipPath id="clip0_442_231">
<rect width="12.5293" height="12.5293" fill="white" transform="translate(0.606506 0.0919189)"/>
</clipPath>
</defs>
</svg>
